<mxfile host="app.diagrams.net" modified="2024-10-03T09:01:49.223Z" agent="Mozilla/5.0 (Windows NT 10.0; Win64; x64) AppleWebKit/537.36 (KHTML, like Gecko) Chrome/129.0.0.0 Safari/537.36" etag="Iw4w1l-fkKcYR7n94dHS" version="24.4.10" type="device">
  <diagram name="Page-1" id="A6gHz7y4pl0UzIe4a-nL">
    <mxGraphModel dx="989" dy="514" grid="0" gridSize="10" guides="1" tooltips="1" connect="1" arrows="1" fold="1" page="1" pageScale="1" pageWidth="827" pageHeight="1169" math="0" shadow="0">
      <root>
        <mxCell id="0" />
        <mxCell id="1" parent="0" />
        <mxCell id="99eHCPfKFET1jwEx7BNB-6" value="&lt;font style=&quot;font-size: 100px;&quot;&gt;ax + by + c = x&#39;&lt;/font&gt;" style="text;html=1;align=center;verticalAlign=middle;resizable=0;points=[];autosize=1;strokeColor=none;fillColor=none;" parent="1" vertex="1">
          <mxGeometry x="76" y="55" width="690" height="132" as="geometry" />
        </mxCell>
        <mxCell id="99eHCPfKFET1jwEx7BNB-3" value="" style="ellipse;whiteSpace=wrap;html=1;aspect=fixed;fillColor=none;strokeColor=#150DFF;" parent="1" vertex="1">
          <mxGeometry x="79" y="96" width="67" height="67" as="geometry" />
        </mxCell>
        <mxCell id="99eHCPfKFET1jwEx7BNB-7" value="" style="ellipse;whiteSpace=wrap;html=1;aspect=fixed;fillColor=none;strokeColor=#150DFF;" parent="1" vertex="1">
          <mxGeometry x="298" y="94.5" width="70" height="70" as="geometry" />
        </mxCell>
        <mxCell id="99eHCPfKFET1jwEx7BNB-8" value="" style="ellipse;whiteSpace=wrap;html=1;aspect=fixed;fillColor=none;strokeColor=#150DFF;" parent="1" vertex="1">
          <mxGeometry x="519" y="93" width="70" height="70" as="geometry" />
        </mxCell>
        <mxCell id="99eHCPfKFET1jwEx7BNB-9" value="&lt;font color=&quot;#3b16f3&quot; style=&quot;font-size: 80px;&quot;&gt;[ ]&lt;/font&gt;" style="text;html=1;align=center;verticalAlign=middle;whiteSpace=wrap;rounded=0;" parent="1" vertex="1">
          <mxGeometry x="386" y="272" width="190" height="30" as="geometry" />
        </mxCell>
        <mxCell id="99eHCPfKFET1jwEx7BNB-11" value="&lt;font color=&quot;#1f1bee&quot; style=&quot;font-size: 20px;&quot;&gt;a&lt;br&gt;b&lt;br&gt;c&lt;/font&gt;" style="text;html=1;align=center;verticalAlign=middle;resizable=0;points=[];autosize=1;strokeColor=none;fillColor=none;" parent="1" vertex="1">
          <mxGeometry x="466" y="247" width="30" height="90" as="geometry" />
        </mxCell>
        <mxCell id="99eHCPfKFET1jwEx7BNB-12" value="" style="endArrow=classic;html=1;rounded=0;exitX=0.5;exitY=1;exitDx=0;exitDy=0;strokeColor=#6138f5;entryX=0.03;entryY=0.271;entryDx=0;entryDy=0;entryPerimeter=0;" parent="1" source="99eHCPfKFET1jwEx7BNB-3" target="99eHCPfKFET1jwEx7BNB-13" edge="1">
          <mxGeometry width="50" height="50" relative="1" as="geometry">
            <mxPoint x="272" y="263" as="sourcePoint" />
            <mxPoint x="191" y="248" as="targetPoint" />
          </mxGeometry>
        </mxCell>
        <mxCell id="99eHCPfKFET1jwEx7BNB-13" value="Our unknowns&lt;br&gt;&quot;weights&quot; / &quot;model parameters" style="text;html=1;align=center;verticalAlign=middle;resizable=0;points=[];autosize=1;strokeColor=none;fillColor=none;fontStyle=1" parent="1" vertex="1">
          <mxGeometry x="383" y="212" width="193" height="41" as="geometry" />
        </mxCell>
        <mxCell id="99eHCPfKFET1jwEx7BNB-14" value="&lt;font color=&quot;#f34e16&quot; style=&quot;font-size: 80px;&quot;&gt;[ ]&lt;/font&gt;" style="text;html=1;align=center;verticalAlign=middle;whiteSpace=wrap;rounded=0;" parent="1" vertex="1">
          <mxGeometry x="583" y="271" width="190" height="30" as="geometry" />
        </mxCell>
        <mxCell id="99eHCPfKFET1jwEx7BNB-15" value="&lt;span style=&quot;font-size: 20px;&quot;&gt;&lt;font color=&quot;#ee451b&quot;&gt;x&#39;&lt;sub style=&quot;&quot;&gt;1&lt;br&gt;&lt;/sub&gt;x&#39;&lt;sub style=&quot;&quot;&gt;2&lt;br&gt;&lt;/sub&gt;x&#39;&lt;sub style=&quot;&quot;&gt;3&lt;/sub&gt;&lt;/font&gt;&lt;br&gt;&lt;/span&gt;" style="text;html=1;align=center;verticalAlign=middle;resizable=0;points=[];autosize=1;strokeColor=none;fillColor=none;" parent="1" vertex="1">
          <mxGeometry x="657.5" y="245" width="41" height="99" as="geometry" />
        </mxCell>
        <mxCell id="99eHCPfKFET1jwEx7BNB-16" value="Our target&lt;br&gt;&quot;label&quot; / output" style="text;html=1;align=center;verticalAlign=middle;resizable=0;points=[];autosize=1;strokeColor=none;fillColor=none;fontStyle=1" parent="1" vertex="1">
          <mxGeometry x="626" y="212" width="104" height="41" as="geometry" />
        </mxCell>
        <mxCell id="99eHCPfKFET1jwEx7BNB-20" value="" style="ellipse;whiteSpace=wrap;html=1;aspect=fixed;fillColor=none;strokeColor=#ff330f;" parent="1" vertex="1">
          <mxGeometry x="676" y="93" width="70" height="70" as="geometry" />
        </mxCell>
        <mxCell id="99eHCPfKFET1jwEx7BNB-21" value="" style="endArrow=classic;html=1;rounded=0;exitX=0.5;exitY=1;exitDx=0;exitDy=0;strokeColor=#6138f5;entryX=0.095;entryY=0.122;entryDx=0;entryDy=0;entryPerimeter=0;" parent="1" source="99eHCPfKFET1jwEx7BNB-7" target="99eHCPfKFET1jwEx7BNB-13" edge="1">
          <mxGeometry width="50" height="50" relative="1" as="geometry">
            <mxPoint x="122" y="173" as="sourcePoint" />
            <mxPoint x="444" y="233" as="targetPoint" />
            <Array as="points">
              <mxPoint x="360" y="156" />
            </Array>
          </mxGeometry>
        </mxCell>
        <mxCell id="99eHCPfKFET1jwEx7BNB-22" value="" style="endArrow=classic;html=1;rounded=0;exitX=0;exitY=1;exitDx=0;exitDy=0;strokeColor=#6138f5;entryX=0.596;entryY=-0.031;entryDx=0;entryDy=0;entryPerimeter=0;" parent="1" source="99eHCPfKFET1jwEx7BNB-8" target="99eHCPfKFET1jwEx7BNB-13" edge="1">
          <mxGeometry width="50" height="50" relative="1" as="geometry">
            <mxPoint x="343" y="175" as="sourcePoint" />
            <mxPoint x="450" y="227" as="targetPoint" />
          </mxGeometry>
        </mxCell>
        <mxCell id="99eHCPfKFET1jwEx7BNB-23" value="&lt;font color=&quot;#16f31a&quot; style=&quot;font-size: 80px;&quot;&gt;[&amp;nbsp; &amp;nbsp;]&lt;/font&gt;" style="text;html=1;align=center;verticalAlign=middle;whiteSpace=wrap;rounded=0;" parent="1" vertex="1">
          <mxGeometry x="178" y="276" width="190" height="30" as="geometry" />
        </mxCell>
        <mxCell id="99eHCPfKFET1jwEx7BNB-24" value="Our knowns&lt;br&gt;&quot;features&quot; / input" style="text;html=1;align=center;verticalAlign=middle;resizable=0;points=[];autosize=1;strokeColor=none;fillColor=none;fontStyle=1" parent="1" vertex="1">
          <mxGeometry x="211" y="216" width="115" height="41" as="geometry" />
        </mxCell>
        <mxCell id="99eHCPfKFET1jwEx7BNB-25" value="&lt;font style=&quot;font-size: 17px;&quot; color=&quot;#2da800&quot;&gt;x&lt;sub style=&quot;&quot;&gt;1&lt;/sub&gt;&amp;nbsp; y&lt;sub style=&quot;&quot;&gt;1&amp;nbsp;&lt;/sub&gt;&amp;nbsp;1&lt;br&gt;x&lt;span style=&quot;&quot;&gt;&lt;sub&gt;2&amp;nbsp;&lt;/sub&gt;&lt;/span&gt;&amp;nbsp;y&lt;span style=&quot;&quot;&gt;&lt;sub&gt;2&lt;/sub&gt;&lt;/span&gt;&amp;nbsp; 1&lt;br&gt;x&lt;sub style=&quot;&quot;&gt;3&lt;/sub&gt;&amp;nbsp; y&lt;span style=&quot;&quot;&gt;&lt;sub&gt;3&amp;nbsp;&lt;/sub&gt;&lt;/span&gt;&amp;nbsp;1&lt;/font&gt;" style="text;html=1;align=center;verticalAlign=middle;whiteSpace=wrap;rounded=0;" parent="1" vertex="1">
          <mxGeometry x="222.5" y="283" width="101" height="30" as="geometry" />
        </mxCell>
        <mxCell id="99eHCPfKFET1jwEx7BNB-27" value="" style="endArrow=classic;html=1;rounded=0;exitX=0.5;exitY=1;exitDx=0;exitDy=0;strokeColor=#f58d38;entryX=0.578;entryY=-0.031;entryDx=0;entryDy=0;entryPerimeter=0;" parent="1" source="99eHCPfKFET1jwEx7BNB-20" target="99eHCPfKFET1jwEx7BNB-16" edge="1">
          <mxGeometry width="50" height="50" relative="1" as="geometry">
            <mxPoint x="539" y="163" as="sourcePoint" />
            <mxPoint x="498" y="221" as="targetPoint" />
          </mxGeometry>
        </mxCell>
        <mxCell id="99eHCPfKFET1jwEx7BNB-29" value="" style="ellipse;whiteSpace=wrap;html=1;aspect=fixed;fillColor=none;strokeColor=#07f20b;" parent="1" vertex="1">
          <mxGeometry x="133" y="96" width="67" height="67" as="geometry" />
        </mxCell>
        <mxCell id="99eHCPfKFET1jwEx7BNB-30" value="" style="ellipse;whiteSpace=wrap;html=1;aspect=fixed;fillColor=none;strokeColor=#07f20b;" parent="1" vertex="1">
          <mxGeometry x="352" y="94.5" width="67" height="67" as="geometry" />
        </mxCell>
        <mxCell id="99eHCPfKFET1jwEx7BNB-31" value="" style="ellipse;whiteSpace=wrap;html=1;aspect=fixed;fillColor=none;strokeColor=#07f20b;" parent="1" vertex="1">
          <mxGeometry x="474" y="94.5" width="67" height="67" as="geometry" />
        </mxCell>
        <mxCell id="99eHCPfKFET1jwEx7BNB-32" value="" style="endArrow=classic;html=1;rounded=0;exitX=0.5;exitY=1;exitDx=0;exitDy=0;strokeColor=#0ae62e;" parent="1" source="99eHCPfKFET1jwEx7BNB-29" target="99eHCPfKFET1jwEx7BNB-24" edge="1">
          <mxGeometry width="50" height="50" relative="1" as="geometry">
            <mxPoint x="123" y="173" as="sourcePoint" />
            <mxPoint x="399" y="233" as="targetPoint" />
          </mxGeometry>
        </mxCell>
        <mxCell id="99eHCPfKFET1jwEx7BNB-33" value="" style="endArrow=classic;html=1;rounded=0;exitX=0.5;exitY=1;exitDx=0;exitDy=0;strokeColor=#0ae62e;" parent="1" source="99eHCPfKFET1jwEx7BNB-30" target="99eHCPfKFET1jwEx7BNB-24" edge="1">
          <mxGeometry width="50" height="50" relative="1" as="geometry">
            <mxPoint x="177" y="173" as="sourcePoint" />
            <mxPoint x="250" y="226" as="targetPoint" />
          </mxGeometry>
        </mxCell>
        <mxCell id="99eHCPfKFET1jwEx7BNB-34" value="" style="endArrow=classic;html=1;rounded=0;exitX=0;exitY=1;exitDx=0;exitDy=0;strokeColor=#0ae62e;" parent="1" source="99eHCPfKFET1jwEx7BNB-31" target="99eHCPfKFET1jwEx7BNB-24" edge="1">
          <mxGeometry width="50" height="50" relative="1" as="geometry">
            <mxPoint x="395" y="172" as="sourcePoint" />
            <mxPoint x="310" y="226" as="targetPoint" />
          </mxGeometry>
        </mxCell>
        <mxCell id="99eHCPfKFET1jwEx7BNB-35" value="&lt;b&gt;In terms of linear algebra:&lt;/b&gt;" style="text;html=1;align=center;verticalAlign=middle;resizable=0;points=[];autosize=1;strokeColor=none;fillColor=none;" parent="1" vertex="1">
          <mxGeometry x="30" y="365" width="165" height="26" as="geometry" />
        </mxCell>
        <mxCell id="99eHCPfKFET1jwEx7BNB-36" value="&lt;b&gt;&lt;font style=&quot;font-size: 20px;&quot;&gt;A&lt;/font&gt;&lt;/b&gt;" style="text;html=1;align=center;verticalAlign=middle;resizable=0;points=[];autosize=1;strokeColor=none;fillColor=none;" parent="1" vertex="1">
          <mxGeometry x="250" y="359" width="32" height="36" as="geometry" />
        </mxCell>
        <mxCell id="99eHCPfKFET1jwEx7BNB-38" value="&lt;span style=&quot;font-size: 20px;&quot;&gt;&lt;b&gt;w&lt;/b&gt;&lt;/span&gt;" style="text;html=1;align=center;verticalAlign=middle;resizable=0;points=[];autosize=1;strokeColor=none;fillColor=none;" parent="1" vertex="1">
          <mxGeometry x="465" y="355" width="34" height="36" as="geometry" />
        </mxCell>
        <mxCell id="99eHCPfKFET1jwEx7BNB-40" value="&lt;span style=&quot;font-size: 20px;&quot;&gt;&lt;b&gt;=&lt;/b&gt;&lt;/span&gt;" style="text;html=1;align=center;verticalAlign=middle;resizable=0;points=[];autosize=1;strokeColor=none;fillColor=none;" parent="1" vertex="1">
          <mxGeometry x="579.5" y="359" width="30" height="36" as="geometry" />
        </mxCell>
        <mxCell id="99eHCPfKFET1jwEx7BNB-41" value="&lt;span style=&quot;font-size: 20px;&quot;&gt;&lt;b&gt;B&lt;/b&gt;&lt;/span&gt;" style="text;html=1;align=center;verticalAlign=middle;resizable=0;points=[];autosize=1;strokeColor=none;fillColor=none;" parent="1" vertex="1">
          <mxGeometry x="659.5" y="355" width="32" height="36" as="geometry" />
        </mxCell>
        <mxCell id="99eHCPfKFET1jwEx7BNB-42" value="&lt;b&gt;dot&lt;/b&gt;" style="text;html=1;align=center;verticalAlign=middle;resizable=0;points=[];autosize=1;strokeColor=none;fillColor=none;" parent="1" vertex="1">
          <mxGeometry x="374" y="365" width="37" height="26" as="geometry" />
        </mxCell>
        <mxCell id="99eHCPfKFET1jwEx7BNB-43" value="&lt;b&gt;To learn weights, we can isolate vector w&lt;br&gt;&lt;/b&gt;" style="text;html=1;align=center;verticalAlign=middle;resizable=0;points=[];autosize=1;strokeColor=none;fillColor=none;" parent="1" vertex="1">
          <mxGeometry x="273.5" y="486" width="252" height="26" as="geometry" />
        </mxCell>
        <mxCell id="99eHCPfKFET1jwEx7BNB-44" value="A&lt;sup&gt;-1&lt;/sup&gt;&amp;nbsp;A * w = A&lt;sup&gt;-1&lt;/sup&gt;&amp;nbsp;B" style="text;html=1;align=center;verticalAlign=middle;resizable=0;points=[];autosize=1;strokeColor=none;fillColor=none;" parent="1" vertex="1">
          <mxGeometry x="332.5" y="505" width="106" height="29" as="geometry" />
        </mxCell>
        <mxCell id="99eHCPfKFET1jwEx7BNB-45" value="w = A&lt;sup&gt;-1&lt;/sup&gt;&amp;nbsp;B" style="text;html=1;align=center;verticalAlign=middle;resizable=0;points=[];autosize=1;strokeColor=none;fillColor=none;fontStyle=1" parent="1" vertex="1">
          <mxGeometry x="371.5" y="525" width="68" height="29" as="geometry" />
        </mxCell>
        <mxCell id="99eHCPfKFET1jwEx7BNB-46" value="We might have more points, than unknowns, &lt;br&gt;thus making it a non-square matrix.&lt;br&gt;We can use pseudo-inverse, &lt;br&gt;as a matrix will always have an inverse&lt;br&gt;&amp;nbsp;if its columns are linearly independent:" style="text;html=1;align=center;verticalAlign=middle;resizable=0;points=[];autosize=1;strokeColor=none;fillColor=none;" parent="1" vertex="1">
          <mxGeometry x="278.5" y="544" width="255" height="84" as="geometry" />
        </mxCell>
        <mxCell id="99eHCPfKFET1jwEx7BNB-47" value="(A&lt;sup&gt;T&lt;/sup&gt;A)&lt;sup&gt;-1&lt;/sup&gt;&amp;nbsp;A&lt;sup&gt;T&lt;/sup&gt;" style="text;html=1;align=center;verticalAlign=middle;resizable=0;points=[];autosize=1;strokeColor=none;fillColor=none;fontStyle=1" parent="1" vertex="1">
          <mxGeometry x="367" y="620" width="76" height="29" as="geometry" />
        </mxCell>
        <mxCell id="99eHCPfKFET1jwEx7BNB-48" value="&lt;u&gt;1.&lt;/u&gt; Notice how A&lt;sup&gt;T&lt;/sup&gt;A&lt;br&gt;results in a square matrix!" style="text;html=1;align=center;verticalAlign=middle;resizable=0;points=[];autosize=1;strokeColor=none;fillColor=none;" parent="1" vertex="1">
          <mxGeometry x="321.5" y="649" width="155" height="43" as="geometry" />
        </mxCell>
        <mxCell id="99eHCPfKFET1jwEx7BNB-49" value="&lt;u&gt;2&lt;/u&gt;. If it is linearly independent, &lt;br&gt;the square matrix&lt;br&gt;will have a non-zero dependent,&lt;br&gt;thus is invertible" style="text;html=1;align=center;verticalAlign=middle;resizable=0;points=[];autosize=1;strokeColor=none;fillColor=none;" parent="1" vertex="1">
          <mxGeometry x="312" y="691" width="188" height="70" as="geometry" />
        </mxCell>
        <mxCell id="2amhyk4ljKaMBQwBBaxo-1" value="&lt;font style=&quot;font-size: 16px;&quot;&gt;&lt;u&gt;1. &lt;b&gt;Design matrix&lt;/b&gt;&lt;/u&gt;&lt;/font&gt;" style="text;html=1;align=center;verticalAlign=middle;resizable=0;points=[];autosize=1;strokeColor=#6c8ebf;fillColor=#dae8fc;" vertex="1" parent="1">
          <mxGeometry x="330" y="20" width="142" height="31" as="geometry" />
        </mxCell>
        <mxCell id="2amhyk4ljKaMBQwBBaxo-2" value="&lt;b&gt;&lt;font style=&quot;font-size: 15px;&quot;&gt;&lt;u&gt;2. Calibration (Learning the weights)&lt;/u&gt;&lt;/font&gt;&lt;/b&gt;" style="text;html=1;align=center;verticalAlign=middle;resizable=0;points=[];autosize=1;strokeColor=#6c8ebf;fillColor=#dae8fc;" vertex="1" parent="1">
          <mxGeometry x="265" y="443" width="277" height="30" as="geometry" />
        </mxCell>
        <mxCell id="2amhyk4ljKaMBQwBBaxo-3" value="&lt;b&gt;&lt;font style=&quot;font-size: 15px;&quot;&gt;&lt;u&gt;3. Prediction (Using input and learned weights, to predict output)&lt;/u&gt;&lt;/font&gt;&lt;/b&gt;" style="text;html=1;align=center;verticalAlign=middle;resizable=0;points=[];autosize=1;strokeColor=#6c8ebf;fillColor=#dae8fc;" vertex="1" parent="1">
          <mxGeometry x="164.5" y="784" width="481" height="30" as="geometry" />
        </mxCell>
        <mxCell id="2amhyk4ljKaMBQwBBaxo-4" value="Example using&lt;br&gt;&amp;nbsp;3 coordinate pairs, on equation&lt;div&gt;for finding x coordinates.&amp;nbsp;&lt;br&gt;(finding y is the same process)&lt;br&gt;&lt;div&gt;Pupils x: input, &lt;br&gt;Screen coords x&#39;: output&lt;/div&gt;&lt;/div&gt;" style="text;html=1;align=center;verticalAlign=middle;resizable=0;points=[];autosize=1;strokeColor=none;fillColor=none;" vertex="1" parent="1">
          <mxGeometry x="19.5" y="242" width="186" height="98" as="geometry" />
        </mxCell>
        <mxCell id="2amhyk4ljKaMBQwBBaxo-5" value="" style="ellipse;whiteSpace=wrap;html=1;" vertex="1" parent="1">
          <mxGeometry x="169.5" y="856" width="53" height="52" as="geometry" />
        </mxCell>
        <mxCell id="2amhyk4ljKaMBQwBBaxo-6" value="" style="ellipse;whiteSpace=wrap;html=1;" vertex="1" parent="1">
          <mxGeometry x="222.5" y="856" width="53" height="52" as="geometry" />
        </mxCell>
        <mxCell id="2amhyk4ljKaMBQwBBaxo-7" value="" style="ellipse;whiteSpace=wrap;html=1;fillColor=#dae8fc;strokeColor=#6c8ebf;" vertex="1" parent="1">
          <mxGeometry x="247.75" y="875" width="7.5" height="8" as="geometry" />
        </mxCell>
        <mxCell id="2amhyk4ljKaMBQwBBaxo-8" value="" style="ellipse;whiteSpace=wrap;html=1;fillColor=#dae8fc;strokeColor=#6c8ebf;" vertex="1" parent="1">
          <mxGeometry x="195" y="875" width="7.5" height="8" as="geometry" />
        </mxCell>
        <mxCell id="2amhyk4ljKaMBQwBBaxo-9" value="We have a pupil coordinates" style="text;html=1;align=center;verticalAlign=middle;resizable=0;points=[];autosize=1;strokeColor=none;fillColor=none;" vertex="1" parent="1">
          <mxGeometry x="162" y="833" width="169" height="26" as="geometry" />
        </mxCell>
        <mxCell id="2amhyk4ljKaMBQwBBaxo-10" value="We want to predict screen coordinates" style="text;html=1;align=center;verticalAlign=middle;resizable=0;points=[];autosize=1;strokeColor=none;fillColor=none;" vertex="1" parent="1">
          <mxGeometry x="377" y="833" width="222" height="26" as="geometry" />
        </mxCell>
        <mxCell id="2amhyk4ljKaMBQwBBaxo-12" value="" style="endArrow=classic;html=1;rounded=0;" edge="1" parent="1">
          <mxGeometry width="50" height="50" relative="1" as="geometry">
            <mxPoint x="294.5" y="881.25" as="sourcePoint" />
            <mxPoint x="357" y="881" as="targetPoint" />
          </mxGeometry>
        </mxCell>
        <mxCell id="2amhyk4ljKaMBQwBBaxo-13" value="" style="rounded=0;whiteSpace=wrap;html=1;" vertex="1" parent="1">
          <mxGeometry x="405.5" y="859" width="120" height="60" as="geometry" />
        </mxCell>
        <mxCell id="2amhyk4ljKaMBQwBBaxo-14" value="" style="ellipse;whiteSpace=wrap;html=1;fillColor=#dae8fc;strokeColor=#6c8ebf;" vertex="1" parent="1">
          <mxGeometry x="461.75" y="881" width="7.5" height="8" as="geometry" />
        </mxCell>
        <mxCell id="2amhyk4ljKaMBQwBBaxo-16" value="X" style="text;html=1;align=center;verticalAlign=middle;resizable=0;points=[];autosize=1;strokeColor=none;fillColor=none;" vertex="1" parent="1">
          <mxGeometry x="452.5" y="919" width="26" height="26" as="geometry" />
        </mxCell>
        <mxCell id="2amhyk4ljKaMBQwBBaxo-17" value="Y" style="text;html=1;align=center;verticalAlign=middle;resizable=0;points=[];autosize=1;strokeColor=none;fillColor=none;" vertex="1" parent="1">
          <mxGeometry x="383" y="872" width="26" height="26" as="geometry" />
        </mxCell>
        <mxCell id="2amhyk4ljKaMBQwBBaxo-18" value="We use two models. &lt;br&gt;One model for predicting X-coord, another for predicting Y-coord.&lt;br&gt;(They use the same design matrix from step 1)" style="text;html=1;align=center;verticalAlign=middle;resizable=0;points=[];autosize=1;strokeColor=none;fillColor=none;" vertex="1" parent="1">
          <mxGeometry x="166.5" y="927" width="362" height="55" as="geometry" />
        </mxCell>
        <mxCell id="2amhyk4ljKaMBQwBBaxo-19" value="Aw = b" style="text;html=1;align=center;verticalAlign=middle;resizable=0;points=[];autosize=1;strokeColor=none;fillColor=none;" vertex="1" parent="1">
          <mxGeometry x="319.5" y="994" width="55" height="26" as="geometry" />
        </mxCell>
        <mxCell id="2amhyk4ljKaMBQwBBaxo-20" value="A = known inputs" style="text;html=1;align=center;verticalAlign=middle;resizable=0;points=[];autosize=1;strokeColor=none;fillColor=none;" vertex="1" parent="1">
          <mxGeometry x="227" y="1014" width="109" height="26" as="geometry" />
        </mxCell>
        <mxCell id="2amhyk4ljKaMBQwBBaxo-21" value="" style="ellipse;whiteSpace=wrap;html=1;" vertex="1" parent="1">
          <mxGeometry x="333" y="1018" width="18" height="18" as="geometry" />
        </mxCell>
        <mxCell id="2amhyk4ljKaMBQwBBaxo-24" value="" style="ellipse;whiteSpace=wrap;html=1;fillColor=#dae8fc;strokeColor=#6c8ebf;" vertex="1" parent="1">
          <mxGeometry x="340.87" y="1026" width="2.25" height="2" as="geometry" />
        </mxCell>
        <mxCell id="2amhyk4ljKaMBQwBBaxo-27" value="" style="ellipse;whiteSpace=wrap;html=1;" vertex="1" parent="1">
          <mxGeometry x="351" y="1018" width="18" height="18" as="geometry" />
        </mxCell>
        <mxCell id="2amhyk4ljKaMBQwBBaxo-28" value="" style="ellipse;whiteSpace=wrap;html=1;fillColor=#dae8fc;strokeColor=#6c8ebf;" vertex="1" parent="1">
          <mxGeometry x="358.87" y="1026" width="2.25" height="2" as="geometry" />
        </mxCell>
        <mxCell id="2amhyk4ljKaMBQwBBaxo-29" value="We simply do a linear transformation!" style="text;html=1;align=center;verticalAlign=middle;resizable=0;points=[];autosize=1;strokeColor=none;fillColor=none;" vertex="1" parent="1">
          <mxGeometry x="247.75" y="975" width="216" height="26" as="geometry" />
        </mxCell>
        <mxCell id="2amhyk4ljKaMBQwBBaxo-30" value="w = learned weights (using least squares) &lt;br&gt;from step 2. calibration" style="text;html=1;align=center;verticalAlign=middle;resizable=0;points=[];autosize=1;strokeColor=none;fillColor=none;" vertex="1" parent="1">
          <mxGeometry x="227" y="1028" width="239" height="41" as="geometry" />
        </mxCell>
        <mxCell id="2amhyk4ljKaMBQwBBaxo-31" value="b = output coordinate for one model, either X or Y&amp;nbsp;" style="text;html=1;align=center;verticalAlign=middle;resizable=0;points=[];autosize=1;strokeColor=none;fillColor=none;" vertex="1" parent="1">
          <mxGeometry x="227" y="1061" width="284" height="26" as="geometry" />
        </mxCell>
        <mxCell id="2amhyk4ljKaMBQwBBaxo-34" value="X" style="text;html=1;align=center;verticalAlign=middle;resizable=0;points=[];autosize=1;strokeColor=none;fillColor=none;" vertex="1" parent="1">
          <mxGeometry x="161" y="903" width="26" height="26" as="geometry" />
        </mxCell>
        <mxCell id="2amhyk4ljKaMBQwBBaxo-35" value="" style="endArrow=none;html=1;rounded=0;" edge="1" parent="1">
          <mxGeometry width="50" height="50" relative="1" as="geometry">
            <mxPoint x="182" y="915.89" as="sourcePoint" />
            <mxPoint x="210" y="915.89" as="targetPoint" />
          </mxGeometry>
        </mxCell>
        <mxCell id="2amhyk4ljKaMBQwBBaxo-36" value="Y" style="text;html=1;align=center;verticalAlign=middle;resizable=0;points=[];autosize=1;strokeColor=none;fillColor=none;" vertex="1" parent="1">
          <mxGeometry x="146" y="886" width="26" height="26" as="geometry" />
        </mxCell>
        <mxCell id="2amhyk4ljKaMBQwBBaxo-37" value="" style="endArrow=none;html=1;rounded=0;" edge="1" parent="1">
          <mxGeometry width="50" height="50" relative="1" as="geometry">
            <mxPoint x="159" y="892" as="sourcePoint" />
            <mxPoint x="159" y="867" as="targetPoint" />
          </mxGeometry>
        </mxCell>
        <mxCell id="2amhyk4ljKaMBQwBBaxo-38" value="&lt;b&gt;&lt;font style=&quot;font-size: 15px;&quot;&gt;&lt;u&gt;4. Evaluation (How does our model perform on unseen data)&lt;/u&gt;&lt;/font&gt;&lt;/b&gt;" style="text;html=1;align=center;verticalAlign=middle;resizable=0;points=[];autosize=1;strokeColor=#6c8ebf;fillColor=#dae8fc;" vertex="1" parent="1">
          <mxGeometry x="175.5" y="1179" width="447" height="30" as="geometry" />
        </mxCell>
        <mxCell id="2amhyk4ljKaMBQwBBaxo-40" value="" style="ellipse;whiteSpace=wrap;html=1;" vertex="1" parent="1">
          <mxGeometry x="200" y="1272" width="53" height="52" as="geometry" />
        </mxCell>
        <mxCell id="2amhyk4ljKaMBQwBBaxo-41" value="" style="ellipse;whiteSpace=wrap;html=1;" vertex="1" parent="1">
          <mxGeometry x="253" y="1272" width="53" height="52" as="geometry" />
        </mxCell>
        <mxCell id="2amhyk4ljKaMBQwBBaxo-42" value="" style="ellipse;whiteSpace=wrap;html=1;fillColor=#dae8fc;strokeColor=#6c8ebf;" vertex="1" parent="1">
          <mxGeometry x="278.25" y="1291" width="7.5" height="8" as="geometry" />
        </mxCell>
        <mxCell id="2amhyk4ljKaMBQwBBaxo-43" value="" style="ellipse;whiteSpace=wrap;html=1;fillColor=#dae8fc;strokeColor=#6c8ebf;" vertex="1" parent="1">
          <mxGeometry x="225.5" y="1291" width="7.5" height="8" as="geometry" />
        </mxCell>
        <mxCell id="2amhyk4ljKaMBQwBBaxo-44" value="We have an &lt;u&gt;unseen&lt;/u&gt; pupil coordinates" style="text;html=1;align=center;verticalAlign=middle;resizable=0;points=[];autosize=1;strokeColor=none;fillColor=none;" vertex="1" parent="1">
          <mxGeometry x="167" y="1231" width="219" height="26" as="geometry" />
        </mxCell>
        <mxCell id="2amhyk4ljKaMBQwBBaxo-45" value="We want to see how our prediction differs&lt;div&gt;from the ground truth (the actual known screen&lt;/div&gt;&lt;div&gt;coordinates, used for recording data)&lt;/div&gt;" style="text;html=1;align=center;verticalAlign=middle;resizable=0;points=[];autosize=1;strokeColor=none;fillColor=none;" vertex="1" parent="1">
          <mxGeometry x="386" y="1214" width="267" height="55" as="geometry" />
        </mxCell>
        <mxCell id="2amhyk4ljKaMBQwBBaxo-46" value="" style="endArrow=classic;html=1;rounded=0;" edge="1" parent="1">
          <mxGeometry width="50" height="50" relative="1" as="geometry">
            <mxPoint x="325" y="1297.25" as="sourcePoint" />
            <mxPoint x="387.5" y="1297" as="targetPoint" />
          </mxGeometry>
        </mxCell>
        <mxCell id="2amhyk4ljKaMBQwBBaxo-47" value="" style="rounded=0;whiteSpace=wrap;html=1;" vertex="1" parent="1">
          <mxGeometry x="436" y="1275" width="120" height="60" as="geometry" />
        </mxCell>
        <mxCell id="2amhyk4ljKaMBQwBBaxo-48" value="" style="ellipse;whiteSpace=wrap;html=1;fillColor=#dae8fc;strokeColor=#6c8ebf;" vertex="1" parent="1">
          <mxGeometry x="492.25" y="1297" width="7.5" height="8" as="geometry" />
        </mxCell>
        <mxCell id="2amhyk4ljKaMBQwBBaxo-49" value="Y" style="text;html=1;align=center;verticalAlign=middle;resizable=0;points=[];autosize=1;strokeColor=none;fillColor=none;" vertex="1" parent="1">
          <mxGeometry x="413.5" y="1288" width="26" height="26" as="geometry" />
        </mxCell>
        <mxCell id="2amhyk4ljKaMBQwBBaxo-50" value="X" style="text;html=1;align=center;verticalAlign=middle;resizable=0;points=[];autosize=1;strokeColor=none;fillColor=none;" vertex="1" parent="1">
          <mxGeometry x="191.5" y="1319" width="26" height="26" as="geometry" />
        </mxCell>
        <mxCell id="2amhyk4ljKaMBQwBBaxo-51" value="" style="endArrow=none;html=1;rounded=0;" edge="1" parent="1">
          <mxGeometry width="50" height="50" relative="1" as="geometry">
            <mxPoint x="212.5" y="1331.8899999999999" as="sourcePoint" />
            <mxPoint x="240.5" y="1331.8899999999999" as="targetPoint" />
          </mxGeometry>
        </mxCell>
        <mxCell id="2amhyk4ljKaMBQwBBaxo-52" value="Y" style="text;html=1;align=center;verticalAlign=middle;resizable=0;points=[];autosize=1;strokeColor=none;fillColor=none;" vertex="1" parent="1">
          <mxGeometry x="176.5" y="1302" width="26" height="26" as="geometry" />
        </mxCell>
        <mxCell id="2amhyk4ljKaMBQwBBaxo-53" value="" style="endArrow=none;html=1;rounded=0;" edge="1" parent="1">
          <mxGeometry width="50" height="50" relative="1" as="geometry">
            <mxPoint x="189.5" y="1308" as="sourcePoint" />
            <mxPoint x="189.5" y="1283" as="targetPoint" />
          </mxGeometry>
        </mxCell>
        <mxCell id="2amhyk4ljKaMBQwBBaxo-54" value="" style="ellipse;whiteSpace=wrap;html=1;fillColor=#d5e8d4;strokeColor=#82b366;" vertex="1" parent="1">
          <mxGeometry x="480.5" y="1309" width="7.5" height="8" as="geometry" />
        </mxCell>
        <mxCell id="2amhyk4ljKaMBQwBBaxo-55" value="" style="endArrow=none;html=1;rounded=0;entryX=0;entryY=1;entryDx=0;entryDy=0;exitX=1;exitY=0;exitDx=0;exitDy=0;fillColor=#f8cecc;strokeColor=#b85450;" edge="1" parent="1" source="2amhyk4ljKaMBQwBBaxo-54" target="2amhyk4ljKaMBQwBBaxo-48">
          <mxGeometry width="50" height="50" relative="1" as="geometry">
            <mxPoint x="446" y="1347" as="sourcePoint" />
            <mxPoint x="496" y="1297" as="targetPoint" />
          </mxGeometry>
        </mxCell>
        <mxCell id="2amhyk4ljKaMBQwBBaxo-56" value="" style="ellipse;whiteSpace=wrap;html=1;fillColor=#dae8fc;strokeColor=#6c8ebf;" vertex="1" parent="1">
          <mxGeometry x="566" y="1277" width="7.5" height="8" as="geometry" />
        </mxCell>
        <mxCell id="2amhyk4ljKaMBQwBBaxo-57" value="&lt;font style=&quot;font-size: 4px;&quot;&gt;prediction&lt;/font&gt;" style="text;html=1;align=center;verticalAlign=middle;resizable=0;points=[];autosize=1;strokeColor=none;fillColor=none;" vertex="1" parent="1">
          <mxGeometry x="569" y="1265" width="35" height="26" as="geometry" />
        </mxCell>
        <mxCell id="2amhyk4ljKaMBQwBBaxo-58" value="" style="ellipse;whiteSpace=wrap;html=1;fillColor=#d5e8d4;strokeColor=#82b366;" vertex="1" parent="1">
          <mxGeometry x="566" y="1288" width="7.5" height="8" as="geometry" />
        </mxCell>
        <mxCell id="2amhyk4ljKaMBQwBBaxo-59" value="&lt;font style=&quot;font-size: 4px;&quot;&gt;ground truth&lt;/font&gt;" style="text;html=1;align=center;verticalAlign=middle;resizable=0;points=[];autosize=1;strokeColor=none;fillColor=none;" vertex="1" parent="1">
          <mxGeometry x="566.5" y="1276" width="40" height="26" as="geometry" />
        </mxCell>
        <mxCell id="2amhyk4ljKaMBQwBBaxo-60" value="" style="endArrow=none;html=1;rounded=0;entryX=0;entryY=1;entryDx=0;entryDy=0;exitX=1;exitY=0;exitDx=0;exitDy=0;fillColor=#f8cecc;strokeColor=#b85450;" edge="1" parent="1">
          <mxGeometry width="50" height="50" relative="1" as="geometry">
            <mxPoint x="566.75" y="1308" as="sourcePoint" />
            <mxPoint x="572.75" y="1302" as="targetPoint" />
          </mxGeometry>
        </mxCell>
        <mxCell id="2amhyk4ljKaMBQwBBaxo-61" value="&lt;font style=&quot;font-size: 4px;&quot;&gt;residual&lt;/font&gt;" style="text;html=1;align=center;verticalAlign=middle;resizable=0;points=[];autosize=1;strokeColor=none;fillColor=none;" vertex="1" parent="1">
          <mxGeometry x="569" y="1288" width="32" height="26" as="geometry" />
        </mxCell>
        <mxCell id="2amhyk4ljKaMBQwBBaxo-63" value="X" style="text;html=1;align=center;verticalAlign=middle;resizable=0;points=[];autosize=1;strokeColor=none;fillColor=none;" vertex="1" parent="1">
          <mxGeometry x="480.5" y="1335" width="26" height="26" as="geometry" />
        </mxCell>
        <mxCell id="2amhyk4ljKaMBQwBBaxo-64" value="We want &lt;u&gt;low variance&lt;/u&gt;&lt;div&gt;(Our predictions on the testing set,&amp;nbsp;&lt;/div&gt;&lt;div&gt;varies only a little compared to truth)&lt;/div&gt;" style="text;html=1;align=center;verticalAlign=middle;resizable=0;points=[];autosize=1;strokeColor=none;fillColor=none;" vertex="1" parent="1">
          <mxGeometry x="267.5" y="1366" width="211" height="55" as="geometry" />
        </mxCell>
        <mxCell id="2amhyk4ljKaMBQwBBaxo-66" value="We want &lt;u&gt;low bias&lt;/u&gt; (our predictions for &lt;br&gt;the training set, are close to ground truth)" style="text;html=1;align=center;verticalAlign=middle;resizable=0;points=[];autosize=1;strokeColor=none;fillColor=none;" vertex="1" parent="1">
          <mxGeometry x="232.25" y="1090" width="237" height="41" as="geometry" />
        </mxCell>
      </root>
    </mxGraphModel>
  </diagram>
</mxfile>
